<?xml version="1.0" encoding="utf-8"?>
<svg version="1.1" id="レイヤー_1" xmlns="http://www.w3.org/2000/svg" xmlns:xlink="http://www.w3.org/1999/xlink" x="0px"
	 y="0px" viewBox="0 0 910 40" style="enable-background:new 0 0 910 40;" xml:space="preserve">
<style type="text/css">
.st0{
fill:#fff;
stroke:#475160;
stroke-dasharray: 2000;
stroke-dashoffset: 0;
stroke-width: 1;
-webkit-animation: hello 4s ease-in 0s;
animation: hello 4s ease-in 0s;
}
@-webkit-keyframes hello {
0% {
stroke-dashoffset: 2000;
fill:transparent;
}
10% {
stroke-dashoffset: 2000;
fill:transparent;
}
50% {
fill:transparent;
}
100% {
stroke-dashoffset: 0;
fill:#fff;
}
}
</style>
<g>
	<g>
		<path class="st0" d="M7.97,2.51l4.63,21.8l5.7-21.8h5.56l5.7,21.8l4.63-21.8h7.3l-8.02,33.75h-7.13L21.08,16.7l-5.27,19.56H8.68
			L0.67,2.51H7.97z"/>
		<path class="st0" d="M59.59,9.94h-8.3v5.64h7.84v7.43h-7.84v5.82h8.3v7.43H44.31V2.51h15.28V9.94z"/>
		<path class="st0" d="M64.62,2.51h10.4c2.47,0,4.35,0.75,5.63,2.24c1.28,1.49,1.92,3.64,1.92,6.45c0,1.7-0.24,3.11-0.73,4.23
			s-1.23,2.07-2.23,2.84c1,0.24,1.85,0.6,2.55,1.1c0.7,0.49,1.27,1.1,1.71,1.81s0.75,1.52,0.94,2.42c0.19,0.9,0.29,1.85,0.29,2.87
			c0,1.58-0.22,2.98-0.66,4.21c-0.44,1.22-1.06,2.25-1.85,3.09c-0.8,0.84-1.76,1.46-2.9,1.88c-1.14,0.42-2.42,0.63-3.85,0.63H64.62
			V2.51z M71.6,15.76h1.28c2.19,0,3.28-1.09,3.28-3.27c0-2.18-1.09-3.27-3.28-3.27H71.6V15.76z M71.6,29.46h1.53
			c1.76,0,3.02-0.28,3.78-0.85c0.76-0.57,1.14-1.48,1.14-2.73s-0.38-2.16-1.14-2.73c-0.76-0.57-2.02-0.85-3.78-0.85H71.6V29.46z"/>
		<path class="st0" d="M104.02,11.15c-0.76-0.78-1.52-1.35-2.28-1.72c-0.76-0.37-1.5-0.56-2.21-0.56c-0.9,0-1.64,0.27-2.21,0.81
			s-0.85,1.24-0.85,2.1c0,0.6,0.14,1.09,0.43,1.48c0.29,0.39,0.66,0.72,1.12,1.01c0.46,0.28,0.99,0.53,1.57,0.74
			c0.58,0.21,1.16,0.43,1.73,0.67c2.28,0.96,3.95,2.23,5.01,3.83c1.06,1.6,1.59,3.68,1.59,6.25c0,1.73-0.23,3.3-0.69,4.7
			c-0.46,1.4-1.14,2.6-2.03,3.6s-1.98,1.78-3.28,2.33c-1.29,0.55-2.76,0.83-4.4,0.83c-3.4,0-6.54-1.27-9.44-3.81l2.99-7.07
			c1.04,1.16,2.08,2.03,3.1,2.6c1.02,0.57,2.03,0.85,3.03,0.85c1.14,0,1.99-0.33,2.55-0.98c0.56-0.66,0.84-1.4,0.84-2.24
			c0-0.51-0.07-0.95-0.21-1.32c-0.14-0.37-0.38-0.72-0.71-1.03c-0.33-0.31-0.77-0.6-1.3-0.87c-0.53-0.27-1.18-0.57-1.94-0.9
			c-0.9-0.36-1.79-0.75-2.65-1.19c-0.87-0.43-1.64-1.01-2.32-1.72c-0.68-0.72-1.22-1.62-1.64-2.71c-0.42-1.09-0.62-2.47-0.62-4.14
			c0-1.67,0.22-3.19,0.66-4.54c0.44-1.36,1.06-2.52,1.85-3.49c0.8-0.97,1.77-1.72,2.92-2.26c1.15-0.54,2.44-0.81,3.87-0.81
			c1.33,0,2.72,0.23,4.17,0.69c1.45,0.46,2.84,1.14,4.17,2.04L104.02,11.15z"/>
		<path class="st0" d="M119.27,2.51v33.75h-6.98V2.51H119.27z"/>
		<path class="st0" d="M135.09,9.94v26.32h-6.98V9.94h-5.74V2.51h18.45v7.43H135.09z"/>
		<path class="st0" d="M159.21,9.94h-8.3v5.64h7.84v7.43h-7.84v5.82h8.3v7.43h-15.28V2.51h15.28V9.94z"/>
		<path class="st0" d="M176.34,2.51h10.33c1.83,0,3.54,0.46,5.15,1.39c1.6,0.93,3,2.16,4.2,3.69c1.2,1.54,2.14,3.33,2.83,5.37
			c0.69,2.04,1.03,4.19,1.03,6.42c0,2.21-0.34,4.34-1.02,6.38c-0.68,2.04-1.62,3.84-2.81,5.39c-1.2,1.55-2.6,2.79-4.2,3.72
			c-1.6,0.93-3.33,1.39-5.18,1.39h-10.33V2.51z M183.33,28.83h1.6c1.21,0,2.29-0.24,3.24-0.72c0.95-0.48,1.75-1.13,2.4-1.97
			c0.65-0.83,1.15-1.83,1.5-2.98c0.34-1.15,0.52-2.41,0.52-3.78c0-1.34-0.18-2.6-0.53-3.76c-0.36-1.16-0.86-2.16-1.51-3
			c-0.65-0.83-1.46-1.49-2.4-1.97c-0.95-0.48-2.02-0.72-3.21-0.72h-1.6V28.83z"/>
		<path class="st0" d="M219.63,9.94h-8.3v5.64h7.84v7.43h-7.84v5.82h8.3v7.43h-15.28V2.51h15.28V9.94z"/>
		<path class="st0" d="M239.4,11.15c-0.76-0.78-1.52-1.35-2.28-1.72c-0.76-0.37-1.5-0.56-2.21-0.56c-0.9,0-1.64,0.27-2.21,0.81
			s-0.85,1.24-0.85,2.1c0,0.6,0.14,1.09,0.43,1.48c0.29,0.39,0.66,0.72,1.12,1.01c0.46,0.28,0.99,0.53,1.57,0.74
			c0.58,0.21,1.16,0.43,1.73,0.67c2.28,0.96,3.95,2.23,5.01,3.83c1.06,1.6,1.59,3.68,1.59,6.25c0,1.73-0.23,3.3-0.69,4.7
			c-0.46,1.4-1.14,2.6-2.03,3.6s-1.98,1.78-3.28,2.33c-1.29,0.55-2.76,0.83-4.4,0.83c-3.4,0-6.54-1.27-9.44-3.81l2.99-7.07
			c1.04,1.16,2.08,2.03,3.1,2.6c1.02,0.57,2.03,0.85,3.03,0.85c1.14,0,1.99-0.33,2.55-0.98c0.56-0.66,0.84-1.4,0.84-2.24
			c0-0.51-0.07-0.95-0.21-1.32c-0.14-0.37-0.38-0.72-0.71-1.03c-0.33-0.31-0.77-0.6-1.3-0.87c-0.53-0.27-1.18-0.57-1.94-0.9
			c-0.9-0.36-1.79-0.75-2.65-1.19c-0.87-0.43-1.64-1.01-2.32-1.72c-0.68-0.72-1.22-1.62-1.64-2.71c-0.42-1.09-0.62-2.47-0.62-4.14
			c0-1.67,0.22-3.19,0.66-4.54c0.44-1.36,1.06-2.52,1.85-3.49c0.8-0.97,1.77-1.72,2.92-2.26c1.15-0.54,2.44-0.81,3.87-0.81
			c1.33,0,2.72,0.23,4.17,0.69c1.45,0.46,2.84,1.14,4.17,2.04L239.4,11.15z"/>
		<path class="st0" d="M254.65,2.51v33.75h-6.98V2.51H254.65z"/>
		<path class="st0" d="M273.35,17.37h13.86c0,1.79-0.06,3.42-0.18,4.88c-0.12,1.46-0.36,2.82-0.71,4.07
			c-0.5,1.76-1.18,3.32-2.03,4.68c-0.85,1.36-1.86,2.49-3.01,3.4c-1.15,0.91-2.42,1.6-3.79,2.08c-1.38,0.48-2.83,0.72-4.35,0.72
			c-2.09,0-4-0.43-5.72-1.3c-1.72-0.87-3.2-2.08-4.44-3.65s-2.2-3.45-2.89-5.64c-0.69-2.19-1.03-4.62-1.03-7.27
			c0-2.63,0.34-5.04,1.02-7.23s1.64-4.07,2.89-5.62c1.25-1.55,2.75-2.76,4.51-3.63c1.76-0.87,3.72-1.3,5.88-1.3
			c2.8,0,5.26,0.76,7.38,2.28c2.11,1.52,3.79,3.88,5.02,7.07l-6.63,3.45c-0.62-1.85-1.42-3.18-2.4-3.98
			c-0.99-0.81-2.11-1.21-3.37-1.21c-1.05,0-2,0.25-2.85,0.74c-0.85,0.49-1.59,1.19-2.19,2.1c-0.61,0.91-1.08,2.01-1.43,3.29
			c-0.34,1.28-0.52,2.72-0.52,4.3c0,1.43,0.15,2.76,0.45,3.98c0.3,1.22,0.74,2.28,1.34,3.18c0.59,0.9,1.33,1.59,2.21,2.08
			c0.88,0.49,1.9,0.74,3.06,0.74c0.69,0,1.35-0.1,2-0.29c0.64-0.19,1.22-0.51,1.73-0.94c0.51-0.43,0.93-0.99,1.26-1.68
			c0.33-0.69,0.56-1.52,0.68-2.51h-5.74V17.37z"/>
		<path class="st0" d="M291.63,36.26V2.51h6.98l12.9,20.64V2.51h6.95v33.75h-6.95l-12.9-20.64v20.64H291.63z"/>
		<path class="st0" d="M354.08,23.37c1.43-1.7,2.59-3.31,3.49-4.83l3.95,4.79c-0.4,0.69-0.86,1.38-1.37,2.08
			c-0.51,0.7-1.1,1.44-1.76,2.22l-0.53,0.63l5.99,8.01h-8.69l-2.35-3.09c-3.21,2.69-6.28,4.03-9.23,4.03
			c-1.26,0-2.41-0.24-3.46-0.72c-1.05-0.48-1.95-1.15-2.71-2.01c-0.76-0.87-1.35-1.89-1.78-3.07c-0.43-1.18-0.64-2.47-0.64-3.87
			c0-1.25,0.14-2.36,0.41-3.33c0.27-0.97,0.74-1.9,1.41-2.8c0.5-0.69,1.05-1.28,1.66-1.77c0.61-0.49,1.35-0.99,2.23-1.5l0.75-0.45
			l-0.46-0.67c-1.38-2.18-2.07-4.25-2.07-6.22c0-1.31,0.21-2.54,0.64-3.67c0.43-1.13,1.02-2.11,1.76-2.93
			c0.75-0.82,1.63-1.46,2.65-1.93c1.02-0.46,2.13-0.69,3.31-0.69c1.21,0,2.33,0.23,3.35,0.69c1.02,0.46,1.91,1.11,2.65,1.95
			c0.75,0.84,1.33,1.81,1.75,2.93c0.42,1.12,0.62,2.34,0.62,3.65c0,0.9-0.08,1.71-0.25,2.44c-0.17,0.73-0.45,1.42-0.84,2.06
			c-0.39,0.64-0.9,1.25-1.53,1.84c-0.63,0.58-1.41,1.17-2.33,1.77L354.08,23.37z M344.75,22.16c-1.69,1.31-2.53,2.63-2.53,3.94
			c0,0.48,0.08,0.92,0.25,1.32c0.17,0.4,0.39,0.75,0.68,1.03c0.29,0.28,0.61,0.51,0.98,0.67c0.37,0.16,0.77,0.25,1.19,0.25
			c1.19,0,2.41-0.49,3.67-1.48L344.75,22.16z M347.64,14.82c1.66-1.25,2.49-2.66,2.49-4.21c0-0.84-0.22-1.56-0.66-2.17
			c-0.44-0.61-1-0.92-1.69-0.92c-0.64,0-1.18,0.27-1.6,0.81c-0.43,0.54-0.64,1.21-0.64,2.01C345.53,11.42,346.23,12.91,347.64,14.82
			z"/>
		<path class="st0" d="M394.06,9.94h-8.3v5.64h7.84v7.43h-7.84v5.82h8.3v7.43h-15.28V2.51h15.28V9.94z"/>
		<path class="st0" d="M418.43,13.79c-1.62-2.48-3.61-3.72-5.99-3.72c-1.05,0-2.01,0.24-2.9,0.72c-0.89,0.48-1.66,1.13-2.3,1.95
			s-1.15,1.8-1.51,2.93c-0.37,1.13-0.55,2.36-0.55,3.67c0,1.34,0.18,2.58,0.55,3.72c0.37,1.13,0.88,2.12,1.53,2.95
			c0.65,0.84,1.42,1.49,2.3,1.97c0.88,0.48,1.83,0.72,2.85,0.72c2.23,0,4.24-1.19,6.02-3.58V35.5l-0.71,0.31
			c-1.07,0.48-2.07,0.83-2.99,1.05c-0.93,0.22-1.84,0.34-2.74,0.34c-1.85,0-3.63-0.44-5.33-1.32c-1.7-0.88-3.19-2.12-4.49-3.72
			c-1.29-1.6-2.33-3.49-3.12-5.69c-0.78-2.19-1.18-4.59-1.18-7.19c0-2.6,0.39-4.98,1.16-7.14c0.77-2.16,1.8-4.03,3.1-5.6
			c1.29-1.57,2.8-2.79,4.51-3.67c1.71-0.88,3.5-1.32,5.38-1.32c1.07,0,2.12,0.14,3.15,0.43c1.03,0.28,2.12,0.72,3.26,1.32V13.79z"/>
		<path class="st0" d="M421.63,19.38c0-2.51,0.37-4.84,1.1-7.01c0.74-2.16,1.76-4.05,3.06-5.66c1.31-1.61,2.87-2.87,4.69-3.78
			c1.82-0.91,3.82-1.37,6-1.37c2.16,0,4.16,0.46,5.99,1.37c1.83,0.91,3.4,2.17,4.72,3.78s2.35,3.5,3.08,5.66
			c0.74,2.16,1.1,4.5,1.1,7.01c0,2.51-0.37,4.84-1.1,7.01c-0.74,2.16-1.76,4.05-3.08,5.66c-1.32,1.61-2.89,2.87-4.72,3.78
			c-1.83,0.91-3.82,1.37-5.99,1.37c-2.19,0-4.19-0.46-6-1.37s-3.38-2.17-4.69-3.78c-1.31-1.61-2.33-3.5-3.06-5.66
			C422,24.23,421.63,21.89,421.63,19.38z M428.94,19.38c0,1.34,0.2,2.58,0.61,3.72s0.95,2.12,1.64,2.95
			c0.69,0.84,1.49,1.48,2.4,1.95c0.91,0.46,1.88,0.69,2.9,0.69c1.02,0,1.99-0.23,2.9-0.69c0.91-0.46,1.72-1.11,2.42-1.95
			c0.7-0.84,1.25-1.82,1.66-2.95s0.61-2.37,0.61-3.72c0-1.34-0.2-2.58-0.61-3.72c-0.4-1.13-0.96-2.12-1.66-2.95
			c-0.7-0.84-1.51-1.48-2.42-1.95c-0.91-0.46-1.88-0.69-2.9-0.69c-1.02,0-1.99,0.23-2.9,0.69c-0.91,0.46-1.72,1.11-2.4,1.95
			c-0.69,0.84-1.24,1.82-1.64,2.95C429.14,16.8,428.94,18.04,428.94,19.38z"/>
		<path class="st0" d="M454.59,36.26l4.56-33.75h6.91l5.38,18l5.34-18h6.91l4.56,33.75h-6.95l-2.32-19.43l-6.34,19.43h-2.78
			l-6.02-19.43l-2.32,19.43H454.59z"/>
		<path class="st0" d="M491.46,36.26l4.56-33.75h6.91l5.38,18l5.34-18h6.91l4.56,33.75h-6.95l-2.31-19.43l-6.34,19.43h-2.78
			l-6.02-19.43l-2.32,19.43H491.46z"/>
		<path class="st0" d="M544.83,9.94h-8.3v5.64h7.84v7.43h-7.84v5.82h8.3v7.43h-15.28V2.51h15.28V9.94z"/>
		<path class="st0" d="M572.19,36.26h-8.69l-6.66-12.98v12.98h-6.98V2.51h10.87c1.5,0,2.8,0.28,3.92,0.83s2.04,1.31,2.76,2.26
			c0.72,0.96,1.27,2.06,1.64,3.31c0.37,1.25,0.55,2.6,0.55,4.03c0,2.57-0.49,4.65-1.48,6.25c-0.99,1.6-2.44,2.68-4.36,3.25
			L572.19,36.26z M556.83,17.59h1.32c1.38,0,2.43-0.36,3.17-1.07s1.1-1.75,1.1-3.09c0-1.34-0.37-2.37-1.1-3.09s-1.79-1.07-3.17-1.07
			h-1.32V17.59z"/>
		<path class="st0" d="M594.46,13.79c-1.62-2.48-3.61-3.72-5.99-3.72c-1.05,0-2.01,0.24-2.9,0.72c-0.89,0.48-1.66,1.13-2.3,1.95
			c-0.64,0.82-1.15,1.8-1.51,2.93c-0.37,1.13-0.55,2.36-0.55,3.67c0,1.34,0.18,2.58,0.55,3.72c0.37,1.13,0.88,2.12,1.53,2.95
			c0.65,0.84,1.42,1.49,2.3,1.97c0.88,0.48,1.83,0.72,2.85,0.72c2.23,0,4.24-1.19,6.02-3.58V35.5l-0.71,0.31
			c-1.07,0.48-2.07,0.83-2.99,1.05c-0.93,0.22-1.84,0.34-2.74,0.34c-1.85,0-3.63-0.44-5.33-1.32c-1.7-0.88-3.2-2.12-4.49-3.72
			c-1.29-1.6-2.33-3.49-3.12-5.69c-0.78-2.19-1.18-4.59-1.18-7.19c0-2.6,0.39-4.98,1.16-7.14c0.77-2.16,1.8-4.03,3.1-5.6
			s2.8-2.79,4.51-3.67c1.71-0.88,3.5-1.32,5.38-1.32c1.07,0,2.12,0.14,3.15,0.43c1.03,0.28,2.12,0.72,3.26,1.32V13.79z"/>
		<path class="st0" d="M614.16,9.94h-8.3v5.64h7.84v7.43h-7.84v5.82h8.3v7.43h-15.28V2.51h15.28V9.94z"/>
		<path class="st0" d="M631.29,2.51h10.33c1.83,0,3.54,0.46,5.15,1.39c1.6,0.93,3,2.16,4.2,3.69c1.2,1.54,2.14,3.33,2.83,5.37
			c0.69,2.04,1.03,4.19,1.03,6.42c0,2.21-0.34,4.34-1.02,6.38c-0.68,2.04-1.62,3.84-2.81,5.39c-1.2,1.55-2.6,2.79-4.2,3.72
			c-1.6,0.93-3.33,1.39-5.18,1.39h-10.33V2.51z M638.28,28.83h1.6c1.21,0,2.29-0.24,3.24-0.72c0.95-0.48,1.75-1.13,2.41-1.97
			c0.65-0.83,1.15-1.83,1.5-2.98c0.34-1.15,0.52-2.41,0.52-3.78c0-1.34-0.18-2.6-0.53-3.76c-0.36-1.16-0.86-2.16-1.51-3
			c-0.65-0.83-1.46-1.49-2.4-1.97c-0.95-0.48-2.02-0.72-3.21-0.72h-1.6V28.83z"/>
		<path class="st0" d="M674.58,9.94h-8.3v5.64h7.84v7.43h-7.84v5.82h8.3v7.43H659.3V2.51h15.28V9.94z"/>
		<path class="st0" d="M684.38,2.51l6.48,20.55l6.52-20.55h7.59l-11.33,33.75h-5.56L676.79,2.51H684.38z"/>
		<path class="st0" d="M723.07,9.94h-8.3v5.64h7.84v7.43h-7.84v5.82h8.3v7.43h-15.28V2.51h15.28V9.94z"/>
		<path class="st0" d="M735.07,2.51v26.32h8.37v7.43h-15.36V2.51H735.07z"/>
		<path class="st0" d="M745.83,19.38c0-2.51,0.37-4.84,1.1-7.01c0.74-2.16,1.76-4.05,3.06-5.66c1.31-1.61,2.87-2.87,4.68-3.78
			c1.82-0.91,3.82-1.37,6-1.37c2.16,0,4.16,0.46,5.99,1.37c1.83,0.91,3.4,2.17,4.72,3.78c1.32,1.61,2.34,3.5,3.08,5.66
			c0.74,2.16,1.1,4.5,1.1,7.01c0,2.51-0.37,4.84-1.1,7.01c-0.74,2.16-1.76,4.05-3.08,5.66c-1.32,1.61-2.89,2.87-4.72,3.78
			c-1.83,0.91-3.82,1.37-5.99,1.37c-2.19,0-4.19-0.46-6-1.37c-1.82-0.91-3.38-2.17-4.68-3.78c-1.31-1.61-2.33-3.5-3.06-5.66
			C746.2,24.23,745.83,21.89,745.83,19.38z M753.14,19.38c0,1.34,0.2,2.58,0.61,3.72c0.4,1.13,0.95,2.12,1.64,2.95
			c0.69,0.84,1.49,1.48,2.4,1.95c0.91,0.46,1.88,0.69,2.9,0.69c1.02,0,1.99-0.23,2.9-0.69c0.91-0.46,1.72-1.11,2.42-1.95
			c0.7-0.84,1.25-1.82,1.66-2.95c0.4-1.13,0.61-2.37,0.61-3.72c0-1.34-0.2-2.58-0.61-3.72c-0.4-1.13-0.96-2.12-1.66-2.95
			c-0.7-0.84-1.51-1.48-2.42-1.95c-0.92-0.46-1.88-0.69-2.9-0.69c-1.02,0-1.99,0.23-2.9,0.69c-0.91,0.46-1.72,1.11-2.4,1.95
			c-0.69,0.84-1.24,1.82-1.64,2.95C753.34,16.8,753.14,18.04,753.14,19.38z"/>
		<path class="st0" d="M786.98,36.26H780V2.51h11.12c3.02,0,5.33,0.98,6.93,2.95c1.6,1.97,2.41,4.75,2.41,8.33s-0.8,6.36-2.41,8.33
			c-1.6,1.97-3.91,2.95-6.93,2.95h-4.13V36.26z M786.98,18h2.32c2.57,0,3.85-1.4,3.85-4.21c0-2.8-1.28-4.21-3.85-4.21h-2.32V18z"/>
		<path class="st0" d="M802.94,36.26l4.56-33.75h6.91l5.38,18l5.34-18h6.91l4.56,33.75h-6.95l-2.32-19.43L821,36.26h-2.78
			l-6.02-19.43l-2.32,19.43H802.94z"/>
		<path class="st0" d="M856.31,9.94h-8.3v5.64h7.84v7.43h-7.84v5.82h8.3v7.43h-15.28V2.51h15.28V9.94z"/>
		<path class="st0" d="M861.33,36.26V2.51h6.98l12.9,20.64V2.51h6.95v33.75h-6.95l-12.9-20.64v20.64H861.33z"/>
		<path class="st0" d="M903.98,9.94v26.32H897V9.94h-5.74V2.51h18.46v7.43H903.98z"/>
	</g>
</g>
</svg>
