<?xml version="1.0" encoding="utf-8"?>
<!-- Generator: Adobe Illustrator 23.0.1, SVG Export Plug-In . SVG Version: 6.00 Build 0)  -->
<svg version="1.1" id="レイヤー_1" xmlns="http://www.w3.org/2000/svg" xmlns:xlink="http://www.w3.org/1999/xlink" x="0px"
	 y="0px" viewBox="0 0 150 29" style="enable-background:new 0 0 150 29;" xml:space="preserve">
<style type="text/css">
	.st0{fill:#475160;}
	.st1{fill:#FFFFFF;}
</style>

			<path class="st0" d="M39.42,18.32l3.88-0.74c-0.09,1.64-0.05,3.58,1.26,3.58c0.9,0,1.16-0.65,1.2-1.44
				c0.08-1.56-0.97-2.96-2.01-3.91l-1.12-1c-1.41-1.25-2.87-2.62-2.73-5.32c0.16-3.07,2.39-4.93,5.55-4.93
				c2.66,0,4.66,2.18,4.52,4.83c0,0.06-0.02,0.15-0.03,0.45l-3.94,0.54c0.01-0.24,0.06-0.47,0.07-0.76
				c0.05-0.88-0.08-2.15-1.08-2.15c-0.9,0-1.29,0.85-1.34,1.64c-0.07,1.34,0.59,2.18,1.45,2.92c0.46,0.41,0.91,0.79,1.32,1.19
				c1.84,1.72,3.19,3.48,3.04,6.37c-0.14,2.69-2.44,4.48-5.05,4.48C40.8,24.07,39.41,21.26,39.42,18.32z"/>
			<path class="st0" d="M51.18,19.02l0.34-6.58h-1l0.12-2.34h1l0.23-4.47h3.51l-0.23,4.47h1.69l-0.12,2.34h-1.69l-0.39,7.42
				c-0.04,0.71,0.15,1.11,0.89,1.11c0.34,0,0.68-0.01,1.02-0.06l-0.35,2.72c-0.7,0.21-1.33,0.21-2.02,0.21
				C51.22,23.84,51.05,21.39,51.18,19.02z"/>
			<path class="st0" d="M57.71,21.05l0.57-10.95h3.51l-0.53,10.1c-0.02,0.39-0.06,1.14,0.42,1.14c0.46,0,0.9-0.5,1.13-0.77
				l0.55-10.47h3.51l-0.71,13.58h-3.51l0.06-1.18c-0.7,0.8-1.72,1.48-2.75,1.48C58.44,23.98,57.64,22.41,57.71,21.05z"/>
			<path class="st0" d="M68.1,21.08l0.42-8.03c0.09-1.67,1.36-3.27,2.99-3.27c0.92,0,1.7,0.54,2.19,1.23l0.32-6.07h3.51l-0.98,18.74
				h-3.51l0.05-1.02c-0.59,0.81-1.49,1.32-2.43,1.32C69.09,23.98,68.02,22.59,68.1,21.08z M73.2,20.59l0.39-7.37
				c-0.18-0.26-0.54-0.78-0.95-0.78c-0.53,0-0.61,0.49-0.63,0.9l-0.37,7.03c-0.02,0.44-0.01,0.98,0.53,0.98
				C72.59,21.34,73,20.85,73.2,20.59z"/>
			<path class="st0" d="M79.31,8.91l0.17-3.28h3.51l-0.17,3.28H79.31z M78.54,23.68l0.71-13.58h3.51l-0.71,13.58H78.54z"/>
			<path class="st0" d="M84.04,20.15l0.3-5.78c0.15-2.78,1.47-4.58,4.47-4.58c3,0,4.18,1.79,4.04,4.58l-0.3,5.78
				c-0.12,2.33-2.21,3.83-4.48,3.83C85.81,23.98,83.92,22.47,84.04,20.15z M89.07,20.19l0.35-6.72c0.02-0.47-0.09-1.03-0.75-1.03
				c-0.64,0-0.75,0.59-0.77,1.03l-0.35,6.72c-0.02,0.46-0.04,1.14,0.66,1.14C88.92,21.34,89.04,20.67,89.07,20.19z"/>
			<path class="st0" d="M97.18,23.68l0.98-18.74h3.86c3.21,0,5.7,0.79,5.49,4.84c-0.11,2.01-1.12,3.01-3.03,3.64
				c2.42,0.59,3.22,2.38,3.09,4.73c-0.2,3.78-2.09,5.53-5.78,5.53H97.18z M101.57,12.31h0.63c1.44,0,1.8-1.18,1.88-2.62
				c0.12-2.23-0.77-2.22-2.04-2.21h-0.21L101.57,12.31z M101.11,21.01h0.35c2,0,2.34-0.95,2.45-3.11c0.09-1.8-0.35-3.09-2.11-3.09
				h-0.38L101.11,21.01z"/>
			<path class="st0" d="M108.93,20.15l0.3-5.78c0.15-2.78,1.5-4.59,4.42-4.59c2.92,0,4.08,1.8,3.93,4.59l-0.15,2.81h-4.84
				l-0.16,3.01c-0.02,0.45-0.01,1.14,0.61,1.14c0.62,0,0.76-0.65,0.79-1.23l0.08-1.49h3.45l-0.08,1.53
				c-0.12,2.33-2.16,3.83-4.37,3.83C110.7,23.98,108.81,22.47,108.93,20.15z M112.69,15.34h1.36l0.1-1.87
				c0.02-0.47-0.07-1.03-0.64-1.03c-0.55,0-0.7,0.59-0.72,1.03L112.69,15.34z"/>
			<path class="st0" d="M124.17,23.68l-0.27-1.41c-0.51,1.35-1.55,1.71-2.79,1.71c-2.08,0-2.72-1.75-2.64-3.33
				c0.18-3.35,2.56-4.49,5.43-5.64l0.06-1.15c0.05-0.91-0.11-1.43-0.71-1.43c-0.81,0-0.88,0.76-0.92,1.43l-0.04,0.77h-3.4
				c0.16-3.1,1.84-4.85,4.84-4.85c2.06,0,3.82,1.73,3.71,3.83l-0.34,6.45c-0.07,1.25,0.04,2.39,0.26,3.61H124.17z M123.63,20.61
				l0.17-3.34c-0.94,0.73-1.81,1.71-1.88,3.06c-0.02,0.46,0.09,1.01,0.65,1.01C123.04,21.34,123.37,20.91,123.63,20.61z"/>
			<path class="st0" d="M129.34,19.02l0.34-6.58h-1l0.12-2.34h1l0.23-4.47h3.51l-0.23,4.47H135l-0.12,2.34h-1.69l-0.39,7.42
				c-0.04,0.71,0.15,1.11,0.89,1.11c0.34,0,0.68-0.01,1.02-0.06l-0.35,2.72c-0.7,0.21-1.33,0.21-2.02,0.21
				C129.39,23.84,129.22,21.39,129.34,19.02z"/>
			<path class="st0" d="M135.83,23.68l0.98-18.74h3.51l-0.98,18.74H135.83z"/>
			<path class="st0" d="M141.34,20.15l0.3-5.78c0.15-2.78,1.5-4.59,4.41-4.59c2.93,0,4.08,1.8,3.93,4.59l-0.15,2.81H145l-0.16,3.01
				c-0.02,0.45-0.01,1.14,0.61,1.14c0.62,0,0.76-0.65,0.79-1.23l0.08-1.49h3.45l-0.08,1.53c-0.12,2.33-2.16,3.83-4.38,3.83
				C143.1,23.98,141.21,22.47,141.34,20.15z M145.1,15.34h1.36l0.1-1.87c0.02-0.47-0.07-1.03-0.64-1.03c-0.55,0-0.7,0.59-0.72,1.03
				L145.1,15.34z"/>
			<path class="st0" d="M29.05,14.31c0,7.9-6.41,14.31-14.31,14.31c-7.91,0-14.31-6.41-14.31-14.31C0.42,6.41,6.83,0,14.74,0
					C22.64,0,29.05,6.41,29.05,14.31z"/>
			<path class="st1" d="M28.3,14.31c0,7.49-6.07,13.56-13.56,13.56c-7.49,0-13.56-6.07-13.56-13.56S7.25,0.75,14.74,0.75
					C22.23,0.75,28.3,6.82,28.3,14.31z"/>

			<path class="st0" d="M27.54,14.31c0,7.07-5.73,12.81-12.81,12.81c-7.07,0-12.81-5.73-12.81-12.81S7.66,1.51,14.74,1.51
				C21.81,1.51,27.54,7.24,27.54,14.31z"/>

					<path class="st1" d="M24.31,9.51h-8.64l-0.08,0.96l-0.08,0.96l-0.17,1.92l-0.17,1.92l-0.17,1.92l-0.08,0.96l-0.08,0.96h8.64
						c0.53,0,0.99-0.43,1.04-0.96l0.67-7.68C25.23,9.95,24.84,9.51,24.31,9.51z M18.84,17.19h-1.92l0.17-1.92h1.92L18.84,17.19z
						 M19.18,13.35h-1.92l0.17-1.92h1.92L19.18,13.35z M5.04,10.47l-0.42,4.8h3.84l-0.17,1.92H4.45l-0.08,0.96l-0.08,0.96h8.63
						c0.53,0,1-0.43,1.05-0.96l0.42-4.8h-3.84l0.17-1.92h3.84l0.08-0.96l0.09-0.96H6.08C5.55,9.51,5.08,9.95,5.04,10.47z"/>

</svg>
